
<!-- Generator: Adobe Illustrator 26.0.1, SVG Export Plug-In . SVG Version: 6.00 Build 0)  -->
<svg version="1.1" id="Layer_1" xmlns="http://www.w3.org/2000/svg" xmlns:xlink="http://www.w3.org/1999/xlink" x="0px" y="0px"
	 viewBox="0 0 250 250" style="enable-background:new 0 0 250 250;" xml:space="preserve">
<style type="text/css">
	.st0{fill:#F9F7ED;}
</style>
<path class="st0" d="M3.87,149.65c1.94-27.11,23.53-49.36,50.58-52.04c15.68-1.55,30.23,3.28,41.2,12.06V29.58
	c0-5.83,4.73-10.56,10.56-10.56h0c5.83,0,10.56,4.72,10.56,10.55c0,21.22,0,91.48,0,122.89c0,31.81-26.03,58.62-57.83,57.9
	C26.88,209.64,1.52,182.4,3.87,149.65z M25.14,149.22c-2.97,23.09,16.64,42.69,39.73,39.73c15.74-2.02,28.45-14.73,30.47-30.48
	c2.96-23.08-16.64-42.69-39.72-39.73C39.88,120.76,27.16,133.47,25.14,149.22z"/>
<path class="st0" d="M133.6,160.39c-3.86-33.88,22.7-63.07,56.15-63.07c31.28,0,56.53,25.52,56.53,56.53c0,3.84-0.55,7.41-1.1,10.7
	c0,0,0,0,0,0h-89.18c0,0,0,0,0,0c4.39,14.27,17.84,24.7,33.75,24.7c9.88,0,18.66-4.12,25.25-10.43c0,0,0,0,0,0h25.52c0,0,0,0,0,0
	c-10.06,20.73-33,34.35-58.27,31.07C156.8,206.58,136.5,185.89,133.6,160.39z M156.01,143.42h67.5c0,0,0,0,0,0
	c-4.67-14.27-18.11-24.69-33.75-24.69C173.84,118.72,160.4,129.15,156.01,143.42C156.01,143.42,156.01,143.42,156.01,143.42z"/>
</svg>
